<?xml version="1.0" standalone="no"?>
<!DOCTYPE svg PUBLIC "-//W3C//DTD SVG 20010904//EN"
 "http://www.w3.org/TR/2001/REC-SVG-20010904/DTD/svg10.dtd">
<svg version="1.0" xmlns="http://www.w3.org/2000/svg"
 width="564.000000pt" height="564.000000pt" viewBox="0 0 564.000000 564.000000"
 preserveAspectRatio="xMidYMid meet">
<metadata>
Created by potrace 1.14, written by Peter Selinger 2001-2017
</metadata>
<g transform="translate(0.000000,564.000000) scale(0.100000,-0.100000)"
fill="#000000" stroke="none">
<path d="M2590 4099 c-263 -55 -490 -178 -673 -362 -221 -223 -343 -483 -377
-802 -13 -117 -6 -229 21 -378 94 -513 507 -922 1029 -1021 45 -9 92 -16 104
-15 27 1 21 2 -91 29 -369 85 -689 336 -858 670 -315 625 -64 1382 563 1699
83 42 242 96 251 85 13 -15 49 -1092 37 -1137 -3 -15 -27 -50 -52 -79 -26 -28
-53 -67 -61 -85 -50 -121 -1 -372 93 -470 43 -46 67 -52 112 -29 67 35 142
227 142 363 0 103 -14 143 -76 215 -33 37 -56 75 -60 96 -7 35 -3 179 22 791
8 201 17 367 20 370 11 11 279 5 348 -8 178 -32 390 -124 535 -231 254 -189
448 -498 502 -805 7 -38 14 -62 17 -53 6 29 -26 191 -58 288 -106 324 -339
597 -645 754 -104 54 -203 87 -344 116 -136 27 -366 27 -501 -1z m-80 -1528
c0 -45 26 -159 54 -236 14 -38 23 -71 22 -73 -8 -7 -56 106 -70 163 -19 78
-27 175 -15 175 5 0 9 -13 9 -29z"/>
<path d="M2941 3596 c3 -3 40 -15 81 -25 208 -53 399 -203 501 -391 72 -134
105 -309 86 -461 -10 -80 -26 -127 -26 -77 -1 58 -3 81 -9 75 -4 -4 -7 -17 -8
-29 -1 -19 -6 -22 -29 -20 -39 5 -57 -14 -57 -59 0 -49 23 -72 61 -64 16 4 29
4 29 0 0 -4 -18 -41 -40 -83 -76 -148 -194 -265 -336 -335 -77 -39 -143 -62
-151 -54 -9 10 -27 600 -19 641 5 25 22 54 50 85 70 75 81 103 80 206 0 121
-32 366 -50 384 -7 8 -15 13 -17 10 -2 -2 4 -83 13 -179 17 -173 14 -210 -14
-210 -28 0 -35 31 -43 205 -7 159 -10 180 -25 183 -16 3 -17 -10 -11 -186 6
-189 6 -190 -16 -197 -13 -4 -28 -1 -38 7 -14 11 -15 35 -9 196 7 174 6 184
-11 180 -16 -3 -19 -21 -25 -182 -8 -186 -15 -217 -52 -203 -20 8 -20 55 -1
242 7 77 12 142 9 144 -17 18 -34 -45 -54 -211 -31 -252 -24 -293 66 -389 27
-30 45 -60 50 -85 7 -39 -2 -474 -13 -603 l-6 -74 -96 7 c-355 23 -636 255
-731 606 l-21 75 6 -58 c8 -84 56 -226 106 -310 54 -92 183 -222 274 -275 106
-62 240 -103 360 -111 l100 -6 0 -45 c0 -25 -4 -126 -8 -224 l-7 -179 67 6
c112 9 104 -8 96 201 -4 99 -7 198 -7 219 l-1 39 80 27 c254 86 437 270 527
531 31 91 33 101 33 250 0 149 -2 158 -33 250 -57 163 -129 268 -260 381 -66
57 -190 121 -284 148 -69 20 -177 37 -167 27z m180 -679 c-6 -19 -24 -46 -40
-61 l-29 -28 36 71 c37 71 53 80 33 18z m438 -289 c12 -33 -2 -63 -30 -63 -19
0 -25 6 -27 28 -2 16 -1 35 2 43 9 22 46 17 55 -8z"/>
<path d="M1907 3040 c-48 -38 -44 -112 8 -146 37 -24 98 -6 115 36 37 90 -50
167 -123 110z m80 -8 c22 -14 33 -60 22 -89 -17 -46 -57 -57 -91 -26 -23 20
-24 80 -1 105 17 19 49 23 70 10z"/>
<path d="M2405 3050 c-3 -5 -1 -10 4 -10 6 0 11 5 11 10 0 6 -2 10 -4 10 -3 0
-8 -4 -11 -10z"/>
<path d="M2060 2948 c0 -32 4 -58 10 -58 6 0 10 12 10 28 0 51 11 73 34 70 17
-2 22 -11 24 -50 2 -27 7 -48 12 -48 5 0 10 21 12 48 3 39 6 47 23 47 17 0 20
-8 23 -47 2 -27 7 -48 13 -48 11 0 13 109 2 112 -5 0 -43 2 -85 3 l-78 1 0
-58z"/>
<path d="M2264 3001 c-9 -9 -3 -111 6 -111 6 0 10 17 10 38 0 41 14 62 42 62
15 0 18 -9 18 -50 0 -35 4 -50 13 -50 10 0 12 13 10 48 -5 70 -7 73 -54 70
-22 -2 -42 -5 -45 -7z"/>
<path d="M2400 2950 c0 -33 4 -60 10 -60 6 0 10 27 10 60 0 33 -4 60 -10 60
-6 0 -10 -27 -10 -60z"/>
<path d="M3077 2713 c-4 -3 -7 -42 -7 -85 0 -63 3 -78 15 -78 10 0 15 11 15
35 0 33 2 35 34 35 19 0 38 5 41 10 4 6 -10 10 -34 10 -39 0 -41 2 -41 30 0
29 2 30 46 30 27 0 43 4 39 10 -7 11 -98 14 -108 3z"/>
<path d="M3222 2658 c-17 -17 -15 -84 4 -102 34 -35 94 -2 94 52 0 50 -65 83
-98 50z m74 -33 c8 -33 -13 -67 -39 -63 -17 2 -23 11 -25 38 -6 57 50 79 64
25z"/>
<path d="M3356 2648 c-22 -31 -20 -64 4 -88 25 -25 52 -26 73 -2 20 22 22 83
5 100 -20 20 -65 14 -82 -10z m74 -33 c0 -35 -10 -55 -29 -55 -39 0 -55 54
-25 84 21 21 54 4 54 -29z"/>
</g>
</svg>
